<?xml version="1.0" encoding="UTF-8"?>
<svg width="25px" height="25px" viewBox="0 0 25 25" version="1.1" xmlns="http://www.w3.org/2000/svg" xmlns:xlink="http://www.w3.org/1999/xlink">
    <!-- Generator: Sketch 42 (36781) - http://www.bohemiancoding.com/sketch -->
    <title>account-icon</title>
    <desc>Created with Sketch.</desc>
    <defs></defs>
    <g id="App" stroke="none" stroke-width="1" fill="none" fill-rule="evenodd">
        <path d="M12.5,25 C19.4035594,25 25,19.4035594 25,12.5 C25,5.59644063 19.4035594,0 12.5,0 C5.59644063,0 0,5.59644063 0,12.5 C0,19.4035594 5.59644063,25 12.5,25 L12.5,25 Z M12.5,24 C6.14872538,24 1,18.8512746 1,12.5 C1,6.14872538 6.14872538,1 12.5,1 C18.8512746,1 24,6.14872538 24,12.5 C24,18.8512746 18.8512746,24 12.5,24 L12.5,24 Z M10.4443966,23.7341855 C9.64619926,23.5531064 9.05416863,23.4793112 8.5,23.25 C8.01008529,23.0472767 7.07227383,22.6148719 6.5,22.25 C5.66080868,21.7149461 5,21 5,21 C6.36655577,20.5980718 9.5,19.75 9.5,19.75 C9.5,19.75 10.5,18.75 10,16.75 C10,16.75 8.25,14.75 8.25,12.25 C8.25,12.25 7.49462454,11.6719704 7.5,11 C7.50171824,10.7852077 7.53532054,10.4677655 7.75,10.25 C7.86514481,10.1332 7.88502094,10.1149791 8,10 C8,10 7,6 9,4.5 C9,4.5 9.66280432,3.86948162 10.75,3.5 C11.249146,3.33036607 11.8706955,3.25 12.5,3.25 L12.5,24 C12.5,24 11.3866235,23.9479392 10.4443966,23.7341855 Z M14.5556034,23.7341855 C13.6133765,23.9479392 12.5,24 12.5,24 L12.5,3.25 C13.1293045,3.25 13.750854,3.33036607 14.25,3.5 C15.3371957,3.86948162 16,4.5 16,4.5 C18,6 17,10 17,10 C17.1149791,10.1149791 17.1348552,10.1332 17.25,10.25 C17.4646795,10.4677655 17.4982818,10.7852077 17.5,11 C17.5053755,11.6719704 16.75,12.25 16.75,12.25 C16.75,14.75 15,16.75 15,16.75 C14.5,18.75 15.5,19.75 15.5,19.75 C15.5,19.75 18.6334442,20.5980718 20,21 C20,21 19.3391913,21.7149461 18.5,22.25 C17.9277262,22.6148719 16.9899147,23.0472767 16.5,23.25 C15.9458314,23.4793112 15.3538007,23.5531064 14.5556034,23.7341855 Z" id="Account-Icon" fill="#E71D36"></path>
    </g>
</svg>