<?xml version="1.0" encoding="UTF-8"?>
<svg width="25px" height="24px" viewBox="0 0 25 24" version="1.1" xmlns="http://www.w3.org/2000/svg" xmlns:xlink="http://www.w3.org/1999/xlink">
    <!-- Generator: Sketch 42 (36781) - http://www.bohemiancoding.com/sketch -->
    <title>home-icon</title>
    <desc>Created with Sketch.</desc>
    <defs></defs>
    <g id="App" stroke="none" stroke-width="1" fill="none" fill-rule="evenodd">
        <g id="Global-Element-/-Bottom-Bar-Icons-/-Home---Active" fill="#E71D36">
            <g id="Global-Elements-/-Bottom-Bar-Icons-/-Home---Active" transform="translate(0.000000, 0.862745)">
                <path d="M19.2386459,5.5129826 L19.2386459,5.36055404 C19.2386459,4.56582434 19.879211,3.92156863 20.6817993,3.92156863 C21.4788309,3.92156863 22.1249527,4.57355859 22.1249527,5.36055404 L22.1249527,8.033991 L24.4628698,10.0760153 C25.2945599,10.8024446 25.0724737,11.3913318 23.9659932,11.3913318 L22.1249528,11.3913318 L22.1249531,22.1307415 C22.1249531,22.6866235 21.6869026,23.1372549 21.1175094,23.1372549 L3.89035169,23.1372549 C3.33395585,23.1372549 2.8829079,22.6931776 2.88290788,22.1307415 L2.88290756,11.3913318 L1.03269923,11.3913318 C-0.0734082155,11.3913318 -0.302134258,10.8079182 0.535822558,10.0760153 L11.7463092,0.284356604 C12.1622,-0.0788980328 12.8323003,-0.082559531 13.2523832,0.284356604 L19.2386459,5.5129826 Z M16.9966007,12.1526064 L16.9966007,20.1274966 L19.9966007,20.1274966 L19.9966007,12.1526064 L16.9966007,12.1526064 Z" id="Combined-Shape"></path>
            </g>
        </g>
    </g>
</svg>