<?xml version="1.0" encoding="UTF-8"?>
<svg width="42px" height="34px" viewBox="0 0 42 34" version="1.1" xmlns="http://www.w3.org/2000/svg" xmlns:xlink="http://www.w3.org/1999/xlink">
    <!-- Generator: Sketch 41 (35326) - http://www.bohemiancoding.com/sketch -->
    <title>ic_mail_outline_black_24px</title>
    <desc>Created with Sketch.</desc>
    <defs></defs>
    <g id="Website" stroke="none" stroke-width="1" fill="none" fill-rule="evenodd">
        <g id="ic_mail_outline_black_24px" transform="translate(-4.000000, -8.000000)">
            <g id="Group">
                <polygon id="Shape" points="0 0 50 0 50 50 0 50"></polygon>
                <path d="M41.6666667,8.33333333 L8.33333333,8.33333333 C6.04166667,8.33333333 4.1875,10.2083333 4.1875,12.5 L4.16666667,37.5 C4.16666667,39.7916667 6.04166667,41.6666667 8.33333333,41.6666667 L41.6666667,41.6666667 C43.9583333,41.6666667 45.8333333,39.7916667 45.8333333,37.5 L45.8333333,12.5 C45.8333333,10.2083333 43.9583333,8.33333333 41.6666667,8.33333333 Z M41.6666667,37.5 L8.33333333,37.5 L8.33333333,16.6666667 L25,27.0833333 L41.6666667,16.6666667 L41.6666667,37.5 Z M25,22.9166667 L8.33333333,12.5 L41.6666667,12.5 L25,22.9166667 Z" id="Shape" fill="#000000"></path>
            </g>
        </g>
    </g>
</svg>