<?xml version="1.0" encoding="UTF-8"?>
<svg width="28px" height="46px" viewBox="0 0 28 46" version="1.1" xmlns="http://www.w3.org/2000/svg" xmlns:xlink="http://www.w3.org/1999/xlink">
    <!-- Generator: Sketch 41 (35326) - http://www.bohemiancoding.com/sketch -->
    <title>ic_phone_iphone_black_24px</title>
    <desc>Created with Sketch.</desc>
    <defs></defs>
    <g id="Website" stroke="none" stroke-width="1" fill="none" fill-rule="evenodd">
        <g id="ic_phone_iphone_black_24px" transform="translate(-10.000000, -2.000000)">
            <g id="Group">
                <path d="M32.2916667,2.08333333 L15.625,2.08333333 C12.75,2.08333333 10.4166667,4.41666667 10.4166667,7.29166667 L10.4166667,42.7083333 C10.4166667,45.5833333 12.75,47.9166667 15.625,47.9166667 L32.2916667,47.9166667 C35.1666667,47.9166667 37.5,45.5833333 37.5,42.7083333 L37.5,7.29166667 C37.5,4.41666667 35.1666667,2.08333333 32.2916667,2.08333333 Z M23.9583333,45.8333333 C22.2291667,45.8333333 20.8333333,44.4375 20.8333333,42.7083333 C20.8333333,40.9791667 22.2291667,39.5833333 23.9583333,39.5833333 C25.6875,39.5833333 27.0833333,40.9791667 27.0833333,42.7083333 C27.0833333,44.4375 25.6875,45.8333333 23.9583333,45.8333333 Z M33.3333333,37.5 L14.5833333,37.5 L14.5833333,8.33333333 L33.3333333,8.33333333 L33.3333333,37.5 Z" id="Shape" fill="#000000"></path>
                <polygon id="Shape" points="0 0 50 0 50 50 0 50"></polygon>
            </g>
        </g>
    </g>
</svg>