<?xml version="1.0" encoding="UTF-8"?>
<svg width="21px" height="15px" viewBox="0 0 21 15" version="1.1" xmlns="http://www.w3.org/2000/svg" xmlns:xlink="http://www.w3.org/1999/xlink">
    <!-- Generator: Sketch 42 (36781) - http://www.bohemiancoding.com/sketch -->
    <title>computer</title>
    <desc>Created with Sketch.</desc>
    <defs></defs>
    <g id="App" stroke="none" stroke-width="1" fill="none" fill-rule="evenodd">
        <g id="computer" transform="translate(0.000000, -3.000000)">
            <g id="ic_computer_black_24px">
                <g id="Website">
                    <g id="ic_computer_black_24px">
                        <g id="Group">
                            <polygon id="Shape" points="0 0 21 0 21 21 0 21"></polygon>
                            <path d="M17.5,15.75 C18.4625,15.75 19.24125,14.9625 19.24125,14 L19.25,5.25 C19.25,4.28749999 18.4625,3.5 17.5,3.5 L3.5,3.5 C2.5375,3.5 1.75,4.28749999 1.75,5.25 L1.75,14 C1.75,14.9625 2.5375,15.75 3.5,15.75 L0,15.75 L0,17.5 L21,17.5 L21,15.75 L17.5,15.75 Z M3.5,5.25 L17.5,5.25 L17.5,14 L3.5,14 L3.5,5.25 Z" id="Shape" fill="#E71D36" fill-rule="nonzero"></path>
                        </g>
                    </g>
                </g>
            </g>
        </g>
    </g>
</svg>